<?xml version="1.0" encoding="utf-8"?>
<!-- Generator: Adobe Illustrator 16.0.3, SVG Export Plug-In . SVG Version: 6.00 Build 0)  -->
<!DOCTYPE svg PUBLIC "-//W3C//DTD SVG 1.0//EN" "http://www.w3.org/TR/2001/REC-SVG-20010904/DTD/svg10.dtd">
<svg version="1.0" id="Layer_1" xmlns="http://www.w3.org/2000/svg" xmlns:xlink="http://www.w3.org/1999/xlink" x="0px" y="0px"
	 width="750.018px" height="284.291px" viewBox="0 0 750.018 284.291" enable-background="new 0 0 750.018 284.291"
	 xml:space="preserve">
<g>
	<path fill-rule="evenodd" clip-rule="evenodd" fill="#FFFFFF" d="M505.836,58.874c7,0,12.676,5.674,12.676,12.673
		s-5.676,12.676-12.676,12.676c-6.999,0-12.676-5.677-12.676-12.676S498.837,58.874,505.836,58.874 M557.644,140.869
		c16.238-2.124,28.859-16.082,28.859-32.879V35.104c0-1.458-0.098-2.895-0.282-4.303h21.32v0.002h23.313
		c2.348,0,4.301,1.95,4.301,4.301v36.443v36.443v32.879c16.236-2.124,28.857-16.082,28.857-32.879V35.104
		c0-1.458-0.095-2.895-0.281-4.303h21.319v0.002h23.313c2.348,0,4.3,1.95,4.3,4.301v36.443v36.443v32.879
		c16.237-2.124,28.857-16.082,28.857-32.879V35.104c0-18.255-14.903-33.16-33.157-33.16h-23.313v0.002h-54.138l-0.059-0.002h-23.313
		v0.002h-54.137l-0.062-0.002h-23.313v0.002v28.855v0.002h23.313c2.35,0,4.301,1.95,4.301,4.301v36.443v36.443v4.304H326.622
		h-23.311c-2.349,0-4.301-1.955-4.301-4.304V35.104c0-2.351,1.952-4.303,4.301-4.303h7.238h16.073h153.865V1.944H326.622h-16.073
		h-7.238c-18.256,0-33.16,14.905-33.16,33.16v72.886c0,18.255,14.904,33.158,33.16,33.158h23.311h231.021V140.869z M36.675,44.683
		c8.901,0,16.788,4.328,21.676,10.993h199.013v31.743H58.351c-4.89,6.662-12.775,10.992-21.676,10.992
		c-14.836,0-26.863-12.027-26.863-26.864C9.812,56.708,21.839,44.683,36.675,44.683 M505.836,46.198
		c14.001,0,25.352,11.348,25.352,25.349c0,13.999-11.351,25.349-25.352,25.349s-25.349-11.35-25.349-25.349
		C480.487,57.546,491.835,46.198,505.836,46.198"/>
	<path fill="#FFFFFF" d="M713.659,258.942v23.974h-15.983v-63.83h43.851l7.99,7.992v23.873l-7.99,7.991H713.659z M713.659,242.96
		h19.875v-7.89h-19.875V242.96z M615.991,241.012l-13.112,41.801h-15.472l19.978-63.727h17.213l19.979,63.727h-15.472
		L615.991,241.012z M468.325,219.086h14.65l19.263,48.666l19.263-48.666h14.65v63.83h-15.983v-23.564l-9.323,23.564h-17.214
		l-9.321-23.564v23.564h-15.984V219.086z M412.46,282.916h-15.981v-15.983h15.981V282.916z M298.912,282.916l-7.99-7.992v-47.846
		l7.99-7.992h35.963l7.991,7.992v15.984h-15.982v-7.992h-19.978v31.862h19.978v-7.889h15.982v15.88l-7.991,7.992H298.912z
		 M234.751,282.916H218.87v-63.83h15.881V282.916z M126.735,258.942v23.974h-15.982v-63.83h43.849l7.992,7.992v23.873l-7.992,7.991
		h-5.941l13.933,23.974h-15.982l-13.937-23.974H126.735z M126.735,242.96h19.877v-7.89h-19.877V242.96z M9.807,282.916l-7.991-7.992
		v-47.846l7.991-7.992H45.77l7.991,7.992v15.984H37.777v-7.992H17.798v31.862h19.979v-7.889h15.984v15.88l-7.991,7.992H9.807z"/>
</g>
</svg>
